<?xml version="1.0" encoding="utf-8"?>
<!-- Generator: Adobe Illustrator 15.0.2, SVG Export Plug-In . SVG Version: 6.00 Build 0)  -->
<!DOCTYPE svg PUBLIC "-//W3C//DTD SVG 1.1//EN" "http://www.w3.org/Graphics/SVG/1.1/DTD/svg11.dtd">
<svg version="1.1" id="Layer_1" xmlns="http://www.w3.org/2000/svg" xmlns:xlink="http://www.w3.org/1999/xlink" x="0px" y="0px"
	 width="110px" height="110px" viewBox="-38.5 -45 110 110" enable-background="new -38.5 -45 110 110" xml:space="preserve">
<path d="M44.152-1.57c-0.994,0-2.33,0.047-3.617,0.292c-1.463,0.282-3.16,0.069-5.016-3.165c-1.406-2.444-2.156-4.354-2.225-4.965
	c-0.072-0.653-0.275-2.566,0.225-3.611c0.146-0.304,0.6-0.371,1.066-0.277c0.48,0.091,2.793,0.368,3.564,0.368
	c1.283,0,1.238-1.142,1.238-2.249c0-1.1-0.639-1.639-1.48-1.639H26.4c-1.199,0-1.467,2.289-0.043,2.543
	c1.271,0.217,3.455,0.175,2.572,3.729c-0.066,0.282-0.139,0.183-0.814,0.183H5.719c-0.464,0-0.661-0.24-0.415-0.629
	c0.598-1.014,0.415-4.009,0.085-4.79c-0.347-0.784-0.167-1.035,0.883-1.035h10.892c0.846,0,1.525-1.244,1.525-2.156
	c0-0.906-0.682-2.148-1.525-2.148H2.252c-0.834,0-1.581,1.058-1.581,1.97c0.013,0.92,0.439,1.542,0.864,2.182
	c0.755,1.147,1.087,3.343,0.329,5c-0.3,0.648-1.916,3.86-3.911,7.76c-1.087,2.115-3.5,3.239-5.483,2.934
	c-1.299-0.208-2.626-0.303-3.62-0.303c-8.08,0-14.624,7.053-14.624,15.734c0,8.691,6.948,15.74,15.044,15.74
	c8.07,0,16.096-7.044,16.096-15.736c0-3.77-1.429-7.261-3.665-10.01C0.205,2.308-1.182,0.766-0.914,0.257
	c0.272-0.53,0.476-0.92,0.476-0.92c0.299-0.591,1.161-0.826,1.763-0.341C4.689,1.783,9.89,7.494,12.638,10.573
	c-0.446,0.943-0.715,1.987-0.715,3.101c0,4.021,3.271,7.293,7.29,7.293c2.955,0,5.496-1.773,6.635-4.3
	c0.096-0.204,0.281-0.357,0.5-0.403c0.045-0.016,0.086-0.016,0.135-0.021c0.891-0.054,1.125-0.521,1.809,2.141
	c2.062,6.641,8.729,11.521,15.436,11.521c8.102,0,15.047-7.046,15.047-15.744C58.779,5.478,52.236-1.57,44.152-1.57z M-0.409,7.594
	c1.26,1.892,2.08,4.147,2.08,6.571c0,6.656-5.887,12.066-12.066,12.066c-6.207,0-11.636-5.405-11.636-12.066
	c0-6.655,5.017-12.063,11.219-12.063c0.696,0,1.586,0.073,2.459,0.203c1.346,0.207,1.501,2.309,0.415,4.424
	c-1.743,3.377-3.102,6.023-3.387,6.593c-0.402,0.796-0.138,1.796,0.601,2.23c0.745,0.446,1.675,0.146,2.077-0.651
	c0.411-0.807,1.702-3.417,3.343-6.63C-4.216,6.152-1.734,5.614-0.409,7.594z M36.234,6.154c0.771,0.146,1.381,0.901,1.76,1.815
	c0.449,1.071,0.836,2.141,1.152,3.001c0.188,0.523,0.363,0.985,0.486,1.275c0.037,0.082,0.051,0.185,0.051,0.302
	c0.012,0.354-0.178,0.771-0.582,0.771h-3.949c-1.633,0-3.67-1.429-3.021-3.19c0.342-0.897,0.799-1.73,1.285-2.539
	C34.418,5.951,35.684,6.08,36.234,6.154z M4.198-2.788C3.743-3.165,3.581-3.617,3.657-4.066c0.029-0.154,0.077-0.3,0.155-0.449
	c0,0,0.181-0.494,0.321-0.766c0.191-0.374,0.46-0.771,1.111-0.771h20.857c0.775,0,1.018,0.302,0.986,0.674
	c-0.012,0.123-0.055,0.256-0.119,0.384c-2.244,4.421-4.898,9.28-6.211,11.554c-0.494-0.117-1.014-0.179-1.545-0.179
	c-1.562,0-3.001,0.505-4.188,1.343C11.551,4.317,5.008-2.117,4.198-2.788z M19.213,17.52c-2.119,0-3.844-1.73-3.844-3.849
	s1.725-3.844,3.844-3.844c2.121,0,3.842,1.726,3.842,3.844S21.334,17.52,19.213,17.52z M28.668,8.326
	c-0.33,0.925-0.656,1.802-0.99,2.501c-0.166,0.35-0.521,0.572-0.906,0.564c-0.391-0.013-0.73-0.245-0.883-0.6
	c-0.363-0.863-0.891-1.639-1.551-2.292c1.469-2.773,5.617-10.617,7.27-13.883c0.236-0.479,0.492-0.549,0.717,0
	c0.184,0.444,0.586,1.5,1.172,2.975c0.652,1.643-0.572,3.904-2.029,5.786C30.184,5.038,29.312,6.479,28.668,8.326z M43.404,26.236
	c-4.873,0-9.555-3.368-11.314-8.06c-1.227-3.047,1.633-2.699,3.414-2.699h6.801c0.854,0,1.539-0.566,1.514-1.479
	c-0.004-0.138-0.057-0.252-0.102-0.37c-0.023-0.066-0.023-0.137-0.057-0.213c-0.23-0.547-1.408-3.357-2.875-6.881
	c-0.457-1.097-0.695-2.131-0.713-2.921c-0.01-0.308,0.484-0.783,0.916-0.97C42.465,2,43.131,2.109,43.82,2.109
	c6.211,0,11.225,5.405,11.225,12.062C55.041,20.821,49.604,26.236,43.404,26.236z"/>
</svg>
