<?xml version="1.0" encoding="utf-8"?>
<!-- Generator: Adobe Illustrator 15.0.2, SVG Export Plug-In . SVG Version: 6.00 Build 0)  -->
<!DOCTYPE svg PUBLIC "-//W3C//DTD SVG 1.1//EN" "http://www.w3.org/Graphics/SVG/1.1/DTD/svg11.dtd">
<svg version="1.1" id="Layer_1" xmlns="http://www.w3.org/2000/svg" xmlns:xlink="http://www.w3.org/1999/xlink" x="0px" y="0px"
	 width="110px" height="110px" viewBox="-42.5 -45 110 110" enable-background="new -42.5 -45 110 110" xml:space="preserve">
<path d="M55.222,4.685l-0.974-2.851c-0.529-1.582-2.258-2.86-3.836-2.86H46.86c-2.661-7.469-5.916-16.484-6.866-18.597
	c-1.472-3.289-6.172-4.771-8.758-5.492c0,0-4.324-1.64-18.736-1.64c-14.411,0-18.733,1.64-18.733,1.64
	c-3.03,1.015-7.236,2.442-8.912,5.629c-0.784,1.506-4.088,10.775-6.782,18.46h-3.474c-1.582,0-3.301,1.279-3.848,2.86l-0.979,2.851
	c-0.536,1.585,0.304,2.864,1.882,2.864h3.431c-0.444,1.285-0.714,2.063-0.714,2.063c-0.27,0.471-0.47,2.609-0.47,3.184v16.197v1.13
	v8.714c0,1.667,1.354,3.026,3.026,3.026h11.098c1.675,0,3.03-1.359,3.03-3.026V33.29h42.893v5.547c0,1.667,1.355,3.026,3.02,3.026
	h11.101c1.677,0,3.033-1.359,3.033-3.026v-8.714v-1.13V12.785c0-0.574-0.201-2.708-0.479-3.173c0,0-0.273-0.779-0.724-2.063h3.442
	C54.928,7.549,55.769,6.27,55.222,4.685z M-9.004,20.639h-4.592c-4.106,0-8.216-0.547-8.216-3.156v-3.16
	c0-3.05,1.778-3.156,3.684-3.156c1.86,0,5.558,1.575,7.981,2.668c2.656,1.188,5.625,2.18,5.625,4.146
	C-4.519,19.805-5.549,20.639-9.004,20.639z M-15.398,0.122c2.249-9.371,4.712-14.667,5.25-16.143
	c0.43-1.078,0.857-4.386,22.651-4.386c21.794,0,22.313,3.778,22.361,3.826c0.683,2.001,3.341,8.062,5.479,16.698
	c0,0-9.208,3.135-27.843,3.135C-6.133,3.252-15.398,0.122-15.398,0.122z M29.521,17.974c0-1.974,2.976-2.958,5.619-4.146
	c2.436-1.086,6.125-2.667,7.982-2.667c1.917,0,3.686,0.105,3.686,3.152v3.162h0.007c0,2.61-4.108,3.156-8.214,3.156H34.01
	C30.554,20.639,29.521,19.805,29.521,17.974z"/>
</svg>
