<?xml version="1.0" encoding="utf-8"?>
<!-- Generator: Adobe Illustrator 15.0.2, SVG Export Plug-In . SVG Version: 6.00 Build 0)  -->
<!DOCTYPE svg PUBLIC "-//W3C//DTD SVG 1.1//EN" "http://www.w3.org/Graphics/SVG/1.1/DTD/svg11.dtd">
<svg version="1.1" id="Layer_1" xmlns="http://www.w3.org/2000/svg" xmlns:xlink="http://www.w3.org/1999/xlink" x="0px" y="0px"
	 width="110px" height="110px" viewBox="-78.594 -77.719 110 110" enable-background="new -78.594 -77.719 110 110"
	 xml:space="preserve">
<path d="M18.799-54.695h-6.797v23.406h2.712v10.749H9.549V-56.05c0-7.211-5.85-13.057-13.062-13.057h-42.985
	c-7.214,0-13.062,5.845-13.062,13.057v34.831h-4.484v-11.438h2.853V-56.05h-6.794v23.393h2.851v12.527h5.575V5.444
	c0,4.94,2.758,9.253,6.806,11.464v6.76h11.426v-5.17h32.378v5.17H2.478v-6.636c4.201-2.161,7.074-6.536,7.074-11.588v-24.9h6.252
	v-11.832h2.994V-54.695L18.799-54.695z M-39.969-66.391h30.471v7.082h-30.471V-66.391z M-36.704,4.894h-16.865v-7.61h16.865V4.894z
	 M4.106,4.894H-12.76v-7.61H4.106V4.894z M4.106-19.592c0,0-3.262,10.345-29.384,10.345c-26.122,0-28.838-10.345-28.838-10.345
	v-35.914H4.106V-19.592z"/>
</svg>
