<?xml version="1.0" encoding="utf-8"?>
<!-- Generator: Adobe Illustrator 15.0.2, SVG Export Plug-In . SVG Version: 6.00 Build 0)  -->
<!DOCTYPE svg PUBLIC "-//W3C//DTD SVG 1.1//EN" "http://www.w3.org/Graphics/SVG/1.1/DTD/svg11.dtd">
<svg version="1.1" id="Layer_1" xmlns="http://www.w3.org/2000/svg" xmlns:xlink="http://www.w3.org/1999/xlink" x="0px" y="0px"
	 width="110px" height="110px" viewBox="-38.062 -33.562 110 110" enable-background="new -38.062 -33.562 110 110"
	 xml:space="preserve">
<g>
	<circle cx="21.442" cy="-15.044" r="8.643"/>
	<path d="M41.608,21.856c-1.678-0.763-12.824-6.296-12.824-6.296s-3.963-8.43-5.99-13.036c-1.921-4.34-3.307-5.467-6.057-5.467
		c-1.007,0-3.114,0-4.206,0c-2.213,0-3.026,0.803-4.379,1.57L-3.252,8.334c-1,0.576-1.642,1.431-2.039,2.644l-2.436,16.441
		c-0.354,2.613,1.025,3.724,2.592,4.048c1.268,0.266,3.189-0.38,3.56-2.215c0.315-1.514,2.622-14.957,2.622-14.957l7.446-5.721
		c-1.221,5.696-2.473,11.95-2.879,14.062c-0.716,3.637,1.094,6.396,2.525,8.556c1.302,1.966,18.141,28.506,20.364,31.394
		c2.225,2.9,4.248,4.321,7.344,2.602c2.596-1.441,2.166-4.749,0.718-7.201c-1.432-2.449-18.431-30.103-18.431-30.103l2.866-12.317
		c0,0,1.966,2.803,2.986,4.399c0.491,0.756,0.986,1.048,2.321,1.778c1.571,0.866,9.183,4.326,11.502,5.361
		c2.051,0.911,4.596,1.257,5.621-0.546C44.456,24.744,43.146,22.568,41.608,21.856z"/>
	<path d="M4.015,33.033L0.559,45.166c0,0-7.178,10.396-9.173,13.308c-1.5,2.191-2.634,4.854-0.064,6.8
		c2.884,2.176,5.191-0.657,6.679-2.334c1.365-1.547,6.936-9.316,8.5-11.302c1.052-1.317,1.624-2.438,2.072-3.561
		c0.305-0.735,1.436-3.806,2.154-5.804L4.015,33.033z"/>
</g>
</svg>
